# xmcd
#
# Track frame offsets: 
#        150
#        21892
#        37232
#        54807
#        78547
#        104585
#        130200
#        149977
#        161642
#        183975
#        199980
#        232657
#
# Disc length: 3392 seconds
#
# Revision: 8
# Processed by: cddbd v1.5.2PL0 Copyright (c) Steve Scherf et al.
# Submitted via: ExactAudioCopy v0.99pb5
#
DISCID=aa0d3e0c
DTITLE=Bob Mintzer - Urban Contours
DYEAR=1989
DGENRE=Jazz
TTITLE0=8th Avenue March
TTITLE1=Urban Contours
TTITLE2=I Heard It Through The Grapevine
TTITLE3=The Tunnel
TTITLE4=Papa Lips
TTITLE5=Empty Streets
TTITLE6=Happy Song
TTITLE7=Lincoln Center
TTITLE8=The Way I Feel
TTITLE9=MacDougal Street
TTITLE10=Little Help From My Friends
TTITLE11=Beyond The Limit
EXTD=YEAR: 1989
EXTT0=
EXTT1=
EXTT2=
EXTT3=
EXTT4=
EXTT5=
EXTT6=
EXTT7=
EXTT8=
EXTT9=
EXTT10=
EXTT11=
PLAYORDER=
